<svg xmlns="http://www.w3.org/2000/svg" viewBox="0 0 39.4 64.26"><script xmlns="" type="text/javascript" charset="utf-8" id="zm-extension"/><defs><style>.cls-1{fill:#b62829;}</style></defs><title>logo</title><g id="Layer_2" data-name="Layer 2"><g id="Layer_1-2" data-name="Layer 1"><g id="_Group_" data-name="&lt;Group&gt;"><path id="_Compound_Path_" data-name="&lt;Compound Path&gt;" class="cls-1" d="M19.7,39.4A19.7,19.7,0,1,1,39.4,19.7,19.74,19.74,0,0,1,19.7,39.4ZM19.7,1A18.7,18.7,0,1,0,38.4,19.7,18.74,18.74,0,0,0,19.7,1Z"/><path id="_Compound_Path_2" data-name="&lt;Compound Path&gt;" class="cls-1" d="M19.7,2.9A16.7,16.7,0,1,0,36.4,19.7,16.73,16.73,0,0,0,19.7,2.9Zm-2,23.9a29.36,29.36,0,0,1-2.4,2.3,2.2,2.2,0,0,1-3.3-.2l4.3-3.8a.42.42,0,0,1,.7.1l.7,1C17.9,26.3,17.9,26.6,17.7,26.8Zm3.6,2.5c-.2,2-2.9,2-2.9,2V24a.22.22,0,0,0-.2-.2H15.6a2.5,2.5,0,0,1,.5-1.6l.3-.3a1.68,1.68,0,0,1,1.4-.6h.6a.22.22,0,0,0,.2-.2,1.82,1.82,0,0,1,1-1.5,6.89,6.89,0,0,1,1-.4c.3-.1.5.1.5.4v1.1a.22.22,0,0,0,.2.2h2.4c.1,0,.3.1.3.2l.2,1.4a.27.27,0,0,1-.3.3l-2.3.1c-.1,0-.2.1-.2.3C21.2,24.2,21.4,27.6,21.3,29.3Zm5.3.6L22,26.4c-.2-.1-.2-.3-.1-.5l.6-.9c.1-.2.3-.2.5-.2.9.3,3.7,1.7,4,3A3.38,3.38,0,0,1,26.6,29.9ZM28,22.5c-1-.3-6.8-4.1-7.9-4.8a.19.19,0,0,0-.3,0c-.6.6-3.3,3.2-5.1,4.8-2.1,1.8-4.3,1.8-5,1.4a3,3,0,0,1-.8-.7s2.7-1.6,5.1-3.3a43.65,43.65,0,0,0,4.7-4.4.44.44,0,0,1,.5-.1.63.63,0,0,0,.8-.1.78.78,0,0,0,.1-.8c0-.2-.2-.3-.4-.3l-2,.3a.22.22,0,0,0-.2.2,3.93,3.93,0,0,1-.2.6c-.2.6-1.1,1-1.1,1V15.1a.27.27,0,0,0-.3-.3c-.7.1-2.4.2-3.6.3a2,2,0,0,1-2-1.2l4.8-.9c.1,0,.2-.2.2-.3l-.4-1.5a.57.57,0,0,1,.4-.7l1.2-.2a.5.5,0,0,1,.6.5l.1,1.2c0,.2.2.4.4.3l4.2-.9a4.74,4.74,0,0,1,.3-2.7c.6-1,3.6-1,3.3-.5a9.84,9.84,0,0,0-.6,2.2c-.1.3.1.5.4.6a1.47,1.47,0,0,1,1.3,1.2c.1,1.4-.1,1.6-.8,1.6H23.2a3.6,3.6,0,0,1-.7,1.4,11.15,11.15,0,0,1-.9,1c-.1.1-.1.2,0,.2,1.2.5,6.6,3.1,6.9,3.4S29,22.8,28,22.5Z"/><path id="_Path_" data-name="&lt;Path&gt;" class="cls-1" d="M19.6,63.4c0-.3.1-4.2.1-5.4,0-.2-.1-.3-.3-.4h0a.37.37,0,0,0-.3.1l-.3.3a14.93,14.93,0,0,1-2.3,2.8c-.2.1-.4.1-.5-.1V58.4c0-.6.1-1-.6-.8a2.08,2.08,0,0,0-1,1.1h0c.2-.2.6-.6.6-.3V61a.65.65,0,0,0,.6.6h.2c.7,0,2.6-2.5,2.6-2.5a.1.1,0,0,1,.1.1c0,.6-.1,2.6-.1,3.8s1.5.8,1.5.8A.45.45,0,0,1,19.6,63.4Z"/><path id="_Path_2" data-name="&lt;Path&gt;" class="cls-1" d="M5.7,52.4c0-.3.1-4.2.1-5.4,0-.2-.1-.3-.3-.4h0a.37.37,0,0,0-.3.1l-.3.3a14.93,14.93,0,0,1-2.3,2.8c-.2.1-.4.1-.5-.1V47.4c0-.6.1-1-.6-.8a2.08,2.08,0,0,0-1,1.1h0c.2-.2.6-.6.6-.3V50a.65.65,0,0,0,.6.6h.2c.7,0,2.6-2.5,2.6-2.5a.1.1,0,0,1,.1.1c0,.6-.1,2.6-.1,3.8s1.5.8,1.5.8A.45.45,0,0,1,5.7,52.4Z"/><g id="_Group_2" data-name="&lt;Group&gt;"><path id="_Path_3" data-name="&lt;Path&gt;" class="cls-1" d="M18,45.3a2,2,0,0,0,1.1-1.1,2.81,2.81,0,0,1-1.6.8c-.7.1-1.1-.2-1.2-.7s-.3-.6-.5-.6a.73.73,0,0,0-.4,1.2C15.8,45.6,17,45.7,18,45.3Z"/><path id="_Path_4" data-name="&lt;Path&gt;" class="cls-1" d="M19,52.2c0-.3,0-4.2.1-5.4a.32.32,0,0,0-.3-.3h0a.76.76,0,0,0-.4.2l-.1.1h0c0,.1-.1.1-.1.2a34.62,34.62,0,0,1-2,4.5,1.38,1.38,0,0,1-.3.4c-.2.1-.4,0-.4-.2V47.2c0-.6.1-1.1-.7-.9a2.23,2.23,0,0,0-1.1,1.3h0c.2-.2.7-.7.7-.4v4.9a.65.65,0,0,0,.6.6h.2a1.33,1.33,0,0,0,.9-.6c.3-.4,1.4-2.6,1.9-3.6,0,.9-.1,2.3-.1,3.2,0,1.3,1.5.8,1.5.8S19,52.6,19,52.2Z"/></g><path id="_Path_5" data-name="&lt;Path&gt;" class="cls-1" d="M25.6,52.2v-6h-.2c-.6,0-.8.7-.8,1.5v1.4a3.73,3.73,0,0,1-1.2.2,5.48,5.48,0,0,1-1.3,0V47.2c0-.6.1-1.1-.7-.9a2.23,2.23,0,0,0-1.1,1.3h0c.2-.2.7-.6.7-.4v4.9c0,.3,0,.6.5.6s.5-.6.5-.6V49.6a5.31,5.31,0,0,0,1.4.1,5.43,5.43,0,0,0,1.1-.2v2.2c0,1.3,1.4.8,1.4.8S25.6,52.6,25.6,52.2Z"/><path id="_Compound_Path_3" data-name="&lt;Compound Path&gt;" class="cls-1" d="M11.8,51.9V46.5c0-.3-1,.1-1,.1a2.19,2.19,0,0,0-2.8,1c-1.3,1.8-1.4,4.9-.1,5.4s2.5-2.3,2.7-2.6.2-.4.2.4-.1,2,.6,2.1a.78.78,0,0,0,.9-.4S11.8,52.6,11.8,51.9Zm-1-3.2c-.1,1.6-1.3,3.5-2.1,3.6s-1.1-2.2-.5-3.8a3.19,3.19,0,0,1,1.2-1.6.88.88,0,0,1,.7-.1C10.7,47.1,10.8,47.8,10.8,48.7Z"/><path id="_Compound_Path_4" data-name="&lt;Compound Path&gt;" class="cls-1" d="M31.8,51.9V46.5c0-.3-1,.1-1,.1a2.19,2.19,0,0,0-2.8,1c-1.3,1.8-1.4,4.9-.1,5.4s2.5-2.3,2.7-2.6.2-.4.2.4-.1,2,.6,2.1a.78.78,0,0,0,.9-.4S31.8,52.6,31.8,51.9Zm-1.1-3.2c-.1,1.6-1.3,3.5-2.1,3.6s-1.1-2.2-.5-3.8a3.19,3.19,0,0,1,1.2-1.6.88.88,0,0,1,.7-.1C30.7,47.1,30.8,47.8,30.7,48.7Z"/><path id="_Compound_Path_5" data-name="&lt;Compound Path&gt;" class="cls-1" d="M36,62.9V57.5c0-.3-1,.1-1,.1a2.19,2.19,0,0,0-2.8,1c-1.3,1.8-1.4,4.9-.1,5.4s2.5-2.3,2.7-2.6.2-.4.2.4-.1,2,.6,2.1a.78.78,0,0,0,.9-.4S36,63.6,36,62.9Zm-1-3.3c-.1,1.6-1.3,3.5-2.1,3.6s-1.1-2.2-.5-3.8a3.19,3.19,0,0,1,1.2-1.6.88.88,0,0,1,.7-.1C34.9,58,35.1,58.7,35,59.6Z"/><path id="_Path_6" data-name="&lt;Path&gt;" class="cls-1" d="M6.9,63.3V58.2c0-.9-1.4-1.2-2.4.6a20.46,20.46,0,0,0-1.2,2.7V58.3c0-.6.1-1.1-.7-.9s-1.1,1.4-1.1,1.4.8-.8.8-.4v4.9c0,.3.1.6.5.6s1.2-3.8,2-5.1c.7-1.1,1.3-.6,1.3,0v4.4c0,.5.2.7.8.7s.7-.4.7-.4S6.9,63.7,6.9,63.3Z"/><path id="_Path_7" data-name="&lt;Path&gt;" class="cls-1" d="M29.7,63.3V58.2c0-.9-1.4-1.2-2.4.6a16.32,16.32,0,0,0-.9,1.9V58.2c0-.9-1.4-1.2-2.4.6a10,10,0,0,0-1,2.1c0,.1-.2.1-.2,0V58.3c0-.6.1-1.1-.7-.9S21,58.8,21,58.8s.8-.8.8-.4v4.9c0,.3.1.6.5.6,0,0,.4,0,.5-1.3a10.61,10.61,0,0,1,1.5-3.7c.7-1.1,1.3-.6,1.3,0v4.3c0,.5,0,.7.4.7s.5-.3.5-.7V62a2.77,2.77,0,0,1,.1-.9,9.73,9.73,0,0,1,1.1-2.3c.7-1.1,1.3-.6,1.3,0v4.3c0,.5.2.7.8.7s.7-.4.7-.4S29.7,63.6,29.7,63.3Z"/><path id="_Compound_Path_6" data-name="&lt;Compound Path&gt;" class="cls-1" d="M11.9,57.2a3,3,0,0,0-3.1,2.1c-.2.6-.8,2.9.2,4.3.7,1,2.9,1.1,4.1-1.4C14.1,60.1,14,57.4,11.9,57.2Zm.9,3.5c-.1,1.6-1,2.9-1.9,2.9s-1.5-1.3-1.5-2.9c0-1.9.8-3,1.7-3S13,58.7,12.8,60.7Z"/><path id="_Path_8" data-name="&lt;Path&gt;" class="cls-1" d="M22.5,56.3A1.88,1.88,0,0,1,24,55.2h4.3c.9,0,1-.3,1-.3s.1,1.2-1.3,1.2H23.2A.79.79,0,0,0,22.5,56.3Z"/><path id="_Path_9" data-name="&lt;Path&gt;" class="cls-1" d="M37.9,52.1V46.8a.27.27,0,0,0-.3-.3,12.36,12.36,0,0,0-2.5.2,2.13,2.13,0,0,0-1.5,1.8C33.6,50.3,36,50,36,50s-.7,1.7-1.4,1.9a.78.78,0,0,1-1-.5s-.5,1,0,1.4c.3.2.9.1,1.6-.6a6.06,6.06,0,0,0,1.3-2.1l.1-.3s-1.9,0-1.9-1.4c.1-1.6,2.4-1.4,2.4-1.4v5.3c0,1.2,1.4.4,1.4.4S37.9,52.5,37.9,52.1Z"/></g></g></g></svg>